<svg width="50" height="50" viewBox="0 0 50 50" fill="none" xmlns="http://www.w3.org/2000/svg">
<rect width="50" height="50" rx="25" fill="url(#paint0_linear_1_555)"/>
<path d="M22.6506 23.74C23.8773 24.4467 24.4906 25.5133 24.4906 26.94C24.4906 28.1267 24.0706 29.1 23.2306 29.86C22.3906 30.62 21.3573 31 20.1306 31H14.1906V17H19.7106C20.8973 17 21.904 17.3733 22.7306 18.12C23.5573 18.8667 23.9706 19.8067 23.9706 20.94C23.9706 22.1 23.5306 23.0333 22.6506 23.74ZM19.7106 19.58H16.9506V22.66H19.7106C20.1373 22.66 20.4906 22.5133 20.7706 22.22C21.064 21.9267 21.2106 21.56 21.2106 21.12C21.2106 20.68 21.0706 20.3133 20.7906 20.02C20.5106 19.7267 20.1506 19.58 19.7106 19.58ZM16.9506 28.42H20.1306C20.5973 28.42 20.984 28.2667 21.2906 27.96C21.5973 27.64 21.7506 27.24 21.7506 26.76C21.7506 26.2933 21.5973 25.9067 21.2906 25.6C20.984 25.28 20.5973 25.12 20.1306 25.12H16.9506V28.42ZM34.76 23.74C35.9867 24.4467 36.6 25.5133 36.6 26.94C36.6 28.1267 36.18 29.1 35.34 29.86C34.5 30.62 33.4667 31 32.24 31H26.3V17H31.82C33.0067 17 34.0133 17.3733 34.84 18.12C35.6667 18.8667 36.08 19.8067 36.08 20.94C36.08 22.1 35.64 23.0333 34.76 23.74ZM31.82 19.58H29.06V22.66H31.82C32.2467 22.66 32.6 22.5133 32.88 22.22C33.1733 21.9267 33.32 21.56 33.32 21.12C33.32 20.68 33.18 20.3133 32.9 20.02C32.62 19.7267 32.26 19.58 31.82 19.58ZM29.06 28.42H32.24C32.7067 28.42 33.0933 28.2667 33.4 27.96C33.7067 27.64 33.86 27.24 33.86 26.76C33.86 26.2933 33.7067 25.9067 33.4 25.6C33.0933 25.28 32.7067 25.12 32.24 25.12H29.06V28.42Z" fill="white"/>
<defs>
<linearGradient id="paint0_linear_1_555" x1="25" y1="0" x2="25" y2="50" gradientUnits="userSpaceOnUse">
<stop stop-color="#1FDB5F"/>
<stop offset="1" stop-color="#31C764"/>
</linearGradient>
</defs>
</svg>
