<svg width="50" height="50" viewBox="0 0 50 50" fill="none" xmlns="http://www.w3.org/2000/svg">
<rect width="50" height="50" rx="25" fill="url(#paint0_linear_1_566)"/>
<path d="M19.1119 31.28C17.0185 31.28 15.2785 30.58 13.8919 29.18C12.5185 27.7933 11.8319 26.0667 11.8319 24C11.8319 21.92 12.5185 20.1933 13.8919 18.82C15.2785 17.42 17.0185 16.72 19.1119 16.72C20.3785 16.72 21.5452 17.02 22.6119 17.62C23.6919 18.2067 24.5319 19.0067 25.1319 20.02L22.7519 21.4C22.4052 20.7733 21.9119 20.2867 21.2719 19.94C20.6319 19.58 19.9119 19.4 19.1119 19.4C17.7519 19.4 16.6519 19.8267 15.8119 20.68C14.9852 21.5467 14.5719 22.6533 14.5719 24C14.5719 25.3333 14.9852 26.4333 15.8119 27.3C16.6519 28.1533 17.7519 28.58 19.1119 28.58C19.9119 28.58 20.6319 28.4067 21.2719 28.06C21.9252 27.7 22.4185 27.2133 22.7519 26.6L25.1319 27.98C24.5319 28.9933 23.6919 29.8 22.6119 30.4C21.5452 30.9867 20.3785 31.28 19.1119 31.28ZM38.7688 31H35.7688L34.9288 28.48H29.3488L28.5088 31H25.5288L30.4288 17H33.8488L38.7688 31ZM32.1488 20.18L30.2288 25.9H34.0688L32.1488 20.18Z" fill="white"/>
<defs>
<linearGradient id="paint0_linear_1_566" x1="25" y1="0" x2="25" y2="50" gradientUnits="userSpaceOnUse">
<stop stop-color="#F66700"/>
<stop offset="1" stop-color="#ED3900"/>
</linearGradient>
</defs>
</svg>
